<svg version="1" xmlns="http://www.w3.org/2000/svg" width="933.333" height="933.333" viewBox="0 0 700.000000 700.000000"><path d="M386.6 2.2c-2.4 1.5-4.8 4-6.2 6.8-3.2 6.1-21.4 43.9-22.5 46.7-.6 1.7-1.7 2.3-4.1 2.4-1.8.1-8 .2-13.7.4-5.7.2-13.1.6-16.5.9-10.8 1.1-23.1 2.7-24.6 3.1-.8.2-3.5.7-6 1-8.1 1.1-32.9 7.5-44.3 11.4-16.8 5.8-23.2 8.4-36.3 14.7-67.1 32.1-121.2 86.5-152.9 153.8-11.2 23.8-20.1 51-24.4 75.1-.6 3.3-1.3 7.1-1.6 8.5-.3 1.4-.8 4.5-1.1 7-.3 2.5-.7 5.6-1 7-1.8 11.2-2.5 49.5-1 64.5 1.4 15 1.7 17 2.1 19.5.3 1.4 1 5.4 1.6 9 1.9 11.9 9.1 40.3 11.9 47.5.5 1.1 2.5 6.5 4.5 12 5.5 14.8 20 44 23.1 46.4 3.8 3 8.7 4.1 12.8 3 7-1.9 8-3.5 23.5-36.2 3.4-7 8.8-18.4 12.2-25.5 9.9-20.7 9.7-19.1 4.9-34.9-1.7-5.3-3.3-10.9-3.5-12.5-.3-1.5-1.2-5.6-2-9-1.4-6.1-2-10.1-3.1-19.8-.3-2.5-.7-6.1-.9-8-1-8.2-.3-39.5.9-46 .3-1.4.8-4.5 1.1-7 1-7.5 1.5-10.4 2.4-13.5.5-1.7 1.2-4.7 1.6-6.8 1-6.2 7.3-25.1 12-36 13.6-31.9 33.7-59.7 59.4-82.6 8.8-7.8 23.6-19.1 31-23.4 2.9-1.8 6.5-3.9 8-4.8 17.3-10.3 45.4-21.2 65.4-25.5 7.8-1.7 13-2.5 13.3-2.1.3.2-3.5 8.7-8.4 18.8-4.9 10.1-10 20.9-11.5 23.9-1.4 3-6.8 14.4-12.1 25.4-5.3 10.9-9.6 19.9-9.6 20.1 0 .2-4.9 10.5-11 23-6 12.5-11 22.8-11 23 0 .2-4 8.6-8.9 18.7-4.9 10-10.7 22.1-12.9 26.8-2.2 4.7-7.3 15.5-11.5 24-4.1 8.5-9.6 20-12.2 25.5-2.6 5.5-7.5 15.6-10.8 22.5-3.2 6.9-7.9 16.5-10.2 21.5-2.3 4.9-7.3 15.3-11 23-3.7 7.7-9.1 18.9-12 25-2.9 6-7.7 16.2-10.7 22.5-3.1 6.3-7.8 16.2-10.6 22-2.7 5.8-8 16.8-11.7 24.5-3.7 7.7-8.6 18-11 23-2.3 4.9-7.1 14.8-10.5 22-7.6 15.9-15.7 32.9-21.7 45.4-2.4 5.2-7.4 15.5-11 23-3.6 7.5-8.1 16.9-10 21-4.3 9.1-4.6 14.5-1.2 19.5 4.5 6.6 4.7 6.6 56.2 6.6 50.4-.1 50.5-.1 54.6-5.9 1-1.4 13.8-30.7 28.5-65.1 14.7-34.4 27.3-63.9 28.1-65.5.7-1.7 2.3-5.3 3.5-8 1.2-2.8 2.8-6.6 3.6-8.5.9-1.9 6.1-14.2 11.7-27.4l10.2-23.8H324c36.6.1 67.2.1 68.1.1 1.4.1 1.6 1.6 1.7 9.2 0 8 .3 9.5 2.7 13 3.5 5.3 8.4 7.4 14.4 6.3 3.8-.8 10.3-5.6 42.7-31.4 41.3-32.9 42.6-34.2 41.8-42.2-.2-2.3-1.1-5.1-1.9-6.4-.8-1.3-7-6.8-13.8-12.1-6.7-5.4-12.4-10-12.7-10.3-.3-.3-11.7-9.4-25.4-20.4-24-19.1-29.1-22.6-33.7-22.6-3.7 0-9 3.2-11.5 7-2.2 3.2-2.5 4.9-2.6 12.9 0 7.6-.3 9.1-1.7 9.2-6.7.4-91.4.3-91.6-.2-.4-.5 23.8-55.2 32.6-73.7 2.1-4.6 3.9-8.5 3.9-8.7 0-.2 1.3-3.2 2.9-6.7 1.6-3.5 9-19.8 16.4-36.3 28-62.4 36.9-82 37.1-82.3.2-.1.3 31 .3 69.2 0 66.8.1 69.6 2 72.8 2.1 3.6 77.2 64.3 80.7 65.2 7.1 1.9 14.3-.9 17.7-7 1.5-2.8 1.7-10.4 1.7-101 .1-53.8.1-98.7.2-99.7 0-1.6.6-1.4 4.3 1.5 6.6 5.2 24.5 23.5 31.6 32.3 22.9 28.4 41.1 67.5 47 101 .6 3.3 1.3 6.9 1.5 8 .2 1.1.7 4.7 1 8 .4 3.3.9 7.3 1.1 9 .5 3.8.6 33.9.1 38-.2 1.6-.6 5.8-1 9.1-.3 3.4-1.5 10.8-2.6 16.5-7 36.2-22 69.2-44.8 98.9-6.8 8.8-35.3 38-37.2 38-.5 0-1-1.5-1-3.3-.1-1.7-.2-14-.3-27.2-.2-23.1-.3-24.1-2.4-27.1-2.7-3.8-7.8-6.4-12.6-6.4-4.6 0-13.4 6.2-39.2 27.5-2.2 1.9-11.2 9-20 16-22.4 17.7-25.2 20.3-26.4 23.7-2.5 7-.6 12.8 5.5 17.4l3.6 2.8h28.9c15.9 0 28.7.1 28.6.2-1.2 1.1-13.4 7.1-20.9 10.2-53.4 22.7-112.4 24.6-166.9 5.6-16.8-5.9-18-6-23.1-3.5-5.3 2.5-6.6 4.6-14.3 23.1-3.2 7.4-6.5 15.3-7.5 17.5-7.8 17.6-9.5 22.3-9.4 26.6.1 5.8 2.9 10 8.6 12.7 12 5.5 50.6 17.1 63 18.7 1.8.3 4.4.7 5.8 1 3.4.7 16 2.4 25 3.2 15 1.5 55.1.8 67.1-1.2 1.3-.2 4.6-.6 7.3-1 4.4-.5 16.7-2.8 22.4-4 1.2-.3 3.1-.7 4.2-1 14.1-3.1 36.7-10.6 53-17.5 52.3-22.4 98.4-59.1 133.1-106 23.6-31.8 43.7-75 52.5-112.5.9-3.9 1.8-7.8 2-8.8 1.1-4.7 1.4-6.5 2-10.7.3-2.5.8-4.8 1-5.1.1-.3.8-4.2 1.3-8.7 4-31.6 3.4-66.5-1.4-93.7-.8-4.4-1.7-9.6-2-11.5-.3-1.9-1.3-6.2-2.1-9.5-.9-3.3-1.7-6.7-1.9-7.5-3.7-18.6-19.4-57.8-31.4-77.8-1.7-2.9-3.1-5.5-3.1-5.7 0-1.1-14.2-22.1-20.8-30.9-12.6-16.7-30.4-35.8-44.7-48.1-3.2-2.8-6.3-5.5-6.9-6.1-3.4-3.3-26.6-19.8-35.6-25.3C500.2 95.3 497.9 94 496.9 94c-.5 0-.9-.6-.9-1.3-.1-.6-.2-19.4-.3-41.7-.2-44.5-.2-44.4-6.4-48.6C486.7.6 483.8.5 438.5.2l-48-.2-3.9 2.2z"/></svg>